# AST/ASF file generated using VICON BodyLanguage
# -----------------------------------------------
:version 1.10
:name VICON
:units
  mass 1.0
  length 0.45
  angle deg
:documentation
   .ast/.asf automatically generated from VICON data using
   VICON BodyBuilder and BodyLanguage model FoxedUp or BRILLIANT.MOD
:root
   order TX TY TZ RX RY RZ
   axis XYZ
   position 0 0 0  
   orientation 0 0 0 
:bonedata
  begin
     id 1 
     name lhipjoint
     direction 0.650112 -0.723553 0.232005 
     length 2.45805 
     axis 0 0 0  XYZ
  end
  begin
     id 2 
     name lfemur
     direction 0.34202 -0.939693 0  
     length 7.00073  
     axis 0 0 20  XYZ
    dof rx ry rz
    limits (-160.0 20.0)
           (-70.0 70.0)
           (-60.0 70.0)
  end
  begin
     id 3 
     name ltibia
     direction 0.34202 -0.939693 0   
     length 7.8748   
     axis 0 0 20   XYZ
    dof rx
    limits (-10.0 170.0)
  end
  begin
     id 4 
     name lfoot
     direction 0.0542825 -0.14914 0.987325   
     length 1.75978   
     axis -90 7.62852e-016 20   XYZ
    dof rx rz
    limits (-45.0 90.0)
           (-70.0 20.0)
  end
  begin
     id 5 
     name ltoes
     direction 1.53509e-011 -4.21906e-011 1   
     length 0.893912   
     axis -90 7.62852e-016 20   XYZ
    dof rx
    limits (-90.0 20.0)
  end
  begin
     id 6 
     name rhipjoint
     direction -0.637897 -0.733345 0.235145   
     length 2.42522  
     axis 0 0 0  XYZ 
  end
  begin
     id 7 
     name rfemur
     direction -0.34202 -0.939693 0   
     length 7.02549   
     axis 0 0 -20   XYZ
    dof rx ry rz
    limits (-160.0 20.0)
           (-70.0 70.0)
           (-70.0 60.0)
  end
  begin
     id 8 
     name rtibia
     direction -0.34202 -0.939693 0   
     length 7.71512   
     axis 0 0 -20   XYZ
    dof rx
    limits (-10.0 170.0)
 end
 begin
     id 9 
     name rfoot
     direction -0.0822618 -0.226012 0.970645   
     length 1.90014  
     axis -90 -7.62852e-016 -20   XYZ
    dof rx rz
    limits (-45.0 90.0)
           (-20.0 70.0)
  end
  begin
     id 10 
     name rtoes
     direction -1.53542e-011 -4.21872e-011 1   
     length 0.957341   
     axis -90 -7.62852e-016 -20   XYZ
    dof rx
    limits (-90.0 20.0)
  end
  begin
     id 11 
     name lowerback
     direction -0.0022947 0.999774 -0.0211557   
     length 1.89909   
     axis 0 0 0   XYZ
    dof rx ry rz
    limits (-20.0 45.0)
           (-30.0 30.0)
           (-30.0 30.0)
  end
  begin
     id 12 
     name upperback
     direction 0.0107737 0.998635 0.0511027   
     length 1.8853   
     axis 0 0 0   XYZ
    dof rx ry rz
    limits (-20.0 45.0)
           (-30.0 30.0)
           (-30.0 30.0)
  end
  begin
     id 13 
     name thorax
     direction 0.011824 0.998136 0.0598754   
     length 1.88911   
     axis 0 0 0   XYZ
    dof rx ry rz
    limits (-20.0 45.0)
           (-30.0 30.0)
           (-30.0 30.0)
  end
  begin
     id 14 
     name lowerneck
     direction -0.0685355 0.990319 0.120714   
     length 1.91222   
     axis 0 0 0   XYZ
    dof rx ry rz
    limits (-20.0 45.0)
           (-30.0 30.0)
           (-30.0 30.0)
  end
  begin
     id 15 
     name upperneck
     direction 0.0886204 0.955665 -0.280805   
     length 1.92526   
     axis 0 0 0   XYZ
    dof rx ry rz
    limits (-20.0 45.0)
           (-30.0 30.0)
           (-30.0 30.0)
  end
  begin
     id 16
     name head
     direction 0.0233423 0.993502 -0.111393  
     length 1.96056  
     axis 0 0 0   XYZ
    dof rx ry rz
    limits (-20.0 45.0)
           (-30.0 30.0)
           (-30.0 30.0)
  end
  begin
     id 17 
     name lclavicle
     direction 0.941873 0.32922 0.0670041  
     length 3.31705  
     axis 0 0 0   XYZ
    dof ry rz
    limits (-20.0 10.0)
           (0.0 20.0)
  end
  begin
     id 18 
     name lhumerus
     direction 1 -4.4898e-011 3.38707e-028   
     length 5.29277   
     axis 180 -30 -90   XYZ
    dof rx ry rz
    limits (-60.0 90.0)
           (-90.0 90.0)
           (-90.0 90.0)
  end
  begin
     id 19
     name lradius
     direction 1 -4.48952e-011 1.63213e-028   
     length 2.85226   
     axis 180 -30 -90   XYZ
    dof rx
    limits (-10.0 170.0)
  end
  begin
     id 20
     name lwrist
     direction 1 -4.49001e-011 1.27856e-027   
     length 1.42613   
     axis -1.61767e-015 90 90   XYZ
    dof ry
    limits (-180.0 0.0)
 end
  begin
     id 21 
     name lhand
     direction 1 -4.48976e-011 2.55931e-027   
     length 0.602097   
     axis -1.63363e-015 90 90   XYZ
    dof rx rz
    limits (-90.0 90.0)
           (-45.0 45.0)
  end
  begin
     id 22 
     name lfingers
     direction 1 -4.48986e-011 5.11684e-027   
     length 0.485426   
     axis -3.26723e-015 90 90   XYZ
    dof rx
    limits (0.0 90.0)
  end
  begin
     id 23
     name lthumb
     direction 0.707107 -6.34915e-011 0.707107   
     length 0.696978   
     axis -90 45 -2.25915e-014   XYZ
    dof rx rz
    limits (-45.0 45.0)
           (-45.0 45.0)
  end
  begin
     id 24 
     name rclavicle
     direction -0.939974 0.327078 0.0973096   
     length 3.10337  
     axis 0 0 0   XYZ 
    dof ry rz
    limits (-10.0 20.0)
           (-20.0 0.0)
  end
  begin
     id 25 
     name rhumerus
     direction -1 -4.48975e-011 1.83745e-027  
     length 5.13304   
     axis 180 30 90   XYZ
    dof rx ry rz
    limits (-90.0 60.0)
           (-90.0 90.0)
           (-90.0 90.0)
  end
  begin
     id 26 
     name rradius
     direction -1 -4.48977e-011 7.1775e-029   
     length 2.74305   
     axis 180 30 90   XYZ
    dof rx
    limits (-10.0 170.0)
  end
  begin
     id 27 
     name rwrist
     direction -1 -4.48977e-011 1.27963e-027   
     length 1.37152   
     axis -1.61767e-015 -90 -90   XYZ
    dof ry
    limits (-180.0 0.0)
  end
  begin
     id 28
     name rhand
     direction -1 -4.4888e-011 2.56782e-027   
     length 0.767976   
     axis -1.63363e-015 -90 -90   XYZ
    dof rx rz
    limits (-90.0 90.0)
           (-45.0 45.0)
  end
  begin
     id 29
     name rfingers
     direction -1 -4.48947e-011 5.12384e-027   
     length 0.619162   
     axis -3.26723e-015 -90 -90   XYZ
    dof rx
    limits (0.0 90.0)
  end
  begin
     id 30
     name rthumb
     direction -0.707107 -6.34857e-011 0.707107   
     length 0.888997   
     axis -90 -45 2.25915e-014   XYZ
    dof rx rz
    limits (-45.0 45.0)
           (-45.0 45.0)
  end
:hierarchy
  begin
    root lhipjoint rhipjoint lowerback
    lhipjoint lfemur
    lfemur ltibia
    ltibia lfoot
    lfoot ltoes
    rhipjoint rfemur
    rfemur rtibia
    rtibia rfoot
    rfoot rtoes
    lowerback upperback
    upperback thorax
    thorax lowerneck lclavicle rclavicle
    lowerneck upperneck
    upperneck head
    lclavicle lhumerus
    lhumerus lradius
    lradius lwrist
    lwrist lhand lthumb
    lhand lfingers
    rclavicle rhumerus
    rhumerus rradius
    rradius rwrist
    rwrist rhand rthumb
    rhand rfingers
  end

#!OML:ASF F:\VICON\USERDATA\INSTALL\rory3\rory3.ASF
:FULLY-SPECIFIED
:DEGREES
2218
root 0.272946 17.3181 -1.07532 0.979196 3.4558 -1.35919
lowerback 2.07414 0.634869 0.263417
upperback -1.10504 0.863747 0.402833
thorax -2.29777 0.430313 0.230577
lowerneck -11.7184 -12.2821 -18.2878
upperneck -6.23538 -14.4226 24.3096
head 3.48339 -6.53108 9.38575
rclavicle -7.88927e-015 1.93815e-015
rhumerus -21.4717 54.2764 -90.1747
rradius 61.4507
rwrist 16.874
rhand 12.5238 17.0752
rfingers 7.12502
rthumb 37.5159 -8.85416
lclavicle -7.88927e-015 1.93815e-015
lhumerus -29.851 -74.2907 107.31
lradius 81.1067
lwrist 14.3128
lhand 27.6408 23.4122
lfingers 7.12502
lthumb 51.5739 43.7676
rfemur -4.76289 9.4587 20.1805
rtibia 17.7976
rfoot -11.8925 -15.548
rtoes -12.0616
lfemur -10.2018 -12.4293 -17.1996
ltibia 23.7115
lfoot -14.8999 3.12724
ltoes -16.7866
2219
root 0.278446 17.3194 -1.08319 1.2802 3.42681 -1.31819
lowerback 1.98141 0.622478 0.386397
upperback -1.0901 0.852653 0.517037
thorax -2.23025 0.423913 0.280414
lowerneck -11.2772 -12.1425 -18.195
upperneck -6.66063 -14.2214 23.8854
head 3.19221 -6.47858 9.28869
rclavicle 4.50153e-015 -6.62823e-015
rhumerus -24.4558 52.4851 -93.3014
rradius 59.7104
rwrist 17.5713
rhand 12.5237 17.2777
rfingers 7.12502
rthumb 37.5158 -8.65167
lclavicle 4.50153e-015 -6.62823e-015
lhumerus -30.1654 -74.7609 106.712
lradius 81.666
lwrist 14.8204
lhand 28.1256 23.5455
lfingers 7.12502
lthumb 52.0141 43.6427
rfemur -5.17194 9.46177 20.0472
rtibia 17.8792
rfoot -11.9183 -15.4839
rtoes -10.6913
lfemur -10.5498 -12.444 -17.1899
ltibia 23.6834
lfoot -14.7957 3.17241
ltoes -16.3252
2220
root 0.283276 17.322 -1.08796 1.49658 3.37884 -1.36249
lowerback 1.95482 0.685248 0.660683
upperback -1.07735 0.945033 0.5651
thorax -2.19888 0.46639 0.172911
lowerneck -10.7887 -12.0892 -18.0799
upperneck -7.04167 -14.168 23.6215
head 2.95462 -6.49685 9.22016
rclavicle 3.75575e-015 -7.77745e-015
rhumerus -27.0503 50.2687 -95.9499
rradius 58.0503
rwrist 18.1736
rhand 12.6363 17.6954
rfingers 7.12502
rthumb 37.6223 -8.20558
lclavicle 3.75575e-015 -7.77745e-015
lhumerus -30.2009 -75.6746 105.817
lradius 82.2472
lwrist 15.3095
lhand 28.1243 23.4583
lfingers 7.12502
lthumb 52.013 43.5563
rfemur -5.47418 9.51663 20.032
rtibia 17.9223
rfoot -11.9259 -15.5032
rtoes -9.49186
lfemur -10.7827 -12.4768 -17.1048
ltibia 23.631
lfoot -14.7608 3.32266
ltoes -16.7872
2221
root 0.288592 17.3246 -1.08943 1.62359 3.2875 -1.32373
lowerback 1.9411 0.773322 0.846352
upperback -1.0177 1.06753 0.587769
thorax -2.12685 0.525307 0.0882206
lowerneck -10.3049 -12.0665 -17.9097
upperneck -7.40859 -14.1646 23.3187
head 2.72403 -6.53912 9.12341
rclavicle -1.1189e-014 -6.06293e-015
rhumerus -29.271 48.3307 -98.1227
rradius 56.5567
rwrist 18.5537
rhand 12.0369 17.5975
rfingers 7.12502
rthumb 37.0556 -8.45262
lclavicle -1.1189e-014 -6.06293e-015
lhumerus -29.6671 -76.9417 104.414
lradius 82.9362
lwrist 16.038
lhand 27.1332 23.3491
lfingers 7.12502
lthumb 51.1121 43.9678
rfemur -5.64949 9.55239 19.929
rtibia 17.9287
rfoot -11.9565 -15.4768
rtoes -11.0761
lfemur -10.86 -12.4753 -17.1465
ltibia 23.5471
lfoot -14.8816 3.45836
ltoes -17.0657
2222
root 0.294315 17.3271 -1.09163 1.74737 3.37822 -1.10232
lowerback 1.89677 0.777441 0.810777
upperback -0.930742 1.07007 0.564852
thorax -2.01284 0.527424 0.0859733
lowerneck -9.88197 -11.9751 -17.647
upperneck -7.77856 -14.066 22.9947
head 2.4754 -6.53205 9.01828
rclavicle -1.03019e-014 -1.21259e-014
rhumerus -31.0181 46.6925 -99.8634
rradius 55.0685
rwrist 19.0276
rhand 11.7031 18.0451
rfingers 7.12502
rthumb 36.7398 -8.0862
lclavicle -1.03019e-014 -1.21259e-014
lhumerus -27.6444 -78.1545 101.617
lradius 83.618
lwrist 16.5869
lhand 26.7732 23.3653
lfingers 7.12502
lthumb 50.784 44.1665
rfemur -5.7964 9.48932 19.6383
rtibia 17.9118
rfoot -11.9126 -15.5694
rtoes -13.0808
lfemur -10.9324 -12.6107 -17.3813
ltibia 23.4015
lfoot -14.8556 3.43125
ltoes -16.2288
2223
root 0.29847 17.3304 -1.09258 1.86411 3.89162 -0.912341
lowerback 1.82485 0.664414 0.775746
upperback -0.861588 0.916804 0.566155
thorax -1.90264 0.451819 0.113846
lowerneck -9.49075 -11.8824 -17.4549
upperneck -8.01156 -13.9759 22.7276
head 2.28515 -6.52158 8.93823
rclavicle 1.61544e-014 5.46658e-015
rhumerus -32.4404 44.9586 -101.261
rradius 53.5751
rwrist 19.814
rhand 12.1085 18.646
rfingers 7.12502
rthumb 37.1233 -7.38649
lclavicle 1.61544e-014 5.46658e-015
lhumerus -24.1293 -79.4089 97.4836
lradius 84.3521
lwrist 16.8812
lhand 26.856 23.3874
lfingers 7.12502
lthumb 50.8595 44.1469
rfemur -5.84552 9.29188 19.4291
rtibia 17.9085
rfoot -12.0974 -15.8067
rtoes -12.8077
lfemur -11.0231 -12.9761 -17.5433
ltibia 23.1937
lfoot -14.6452 3.28894
ltoes -15.7532
2224
root 0.301688 17.3338 -1.09223 1.9247 4.40533 -0.724532
lowerback 1.78809 0.54465 0.626721
upperback -0.797594 0.753732 0.653177
thorax -1.81997 0.373044 0.292816
lowerneck -9.11109 -11.8041 -17.3162
upperneck -8.13848 -13.9123 22.3609
head 2.12547 -6.51926 8.82827
rclavicle 1.65985e-014 -3.37934e-015
rhumerus -33.903 43.4614 -102.523
rradius 52.2972
rwrist 20.7124
rhand 9.76813 18.4856
rfingers 7.12502
rthumb 34.9064 -8.09225
lclavicle 1.65985e-014 -3.37934e-015
lhumerus -18.5022 -80.5843 91.4497
lradius 85.1255
lwrist 17.0041
lhand 27.1677 22.9516
lfingers 7.12502
lthumb 51.1435 43.5526
rfemur -5.82329 9.10097 19.247
rtibia 17.9594
rfoot -12.1886 -16.1099
rtoes -12.2305
lfemur -11.0173 -13.3417 -17.7161
ltibia 22.9334
lfoot -14.4405 3.20166
ltoes -16.2295
2225
root 0.30458 17.3363 -1.09282 1.90752 4.38406 -0.600193
lowerback 1.87404 0.602815 0.480077
upperback -0.75505 0.830236 0.778782
thorax -1.82861 0.413762 0.500396
lowerneck -8.61544 -11.7252 -17.2663
upperneck -8.24914 -13.8627 22.0756
head 1.97036 -6.52719 8.76305
rclavicle 1.53437e-015 1.33186e-014
rhumerus -35.3205 42.3091 -103.747
rradius 51.3406
rwrist 20.2274
rhand 9.40124 17.9306
rfingers 7.12502
rthumb 34.5582 -8.72752
lclavicle 1.53437e-015 1.33186e-014
lhumerus -10.1728 -81.5974 82.9041
lradius 85.8539
lwrist 16.9293
lhand 27.9 22.3153
lfingers 7.12502
lthumb 51.8094 42.5335
rfemur -5.80424 9.15054 19.101
rtibia 18.033
rfoot -12.2114 -16.1481
rtoes -12.1127
lfemur -10.8365 -13.357 -17.8845
ltibia 22.6588
lfoot -14.2743 3.30265
ltoes -16.9019
2226
root 0.305895 17.3412 -1.09523 1.96128 4.27479 -0.468452
lowerback 1.9279 0.683193 0.291834
upperback -0.778525 0.935097 0.884092
thorax -1.88833 0.469044 0.709326
lowerneck -8.12707 -11.6336 -17.1367
upperneck -8.30517 -13.8087 21.7519
head 1.82193 -6.53227 8.67214
rclavicle -1.14239e-014 1.78906e-015
rhumerus -36.457 41.2347 -104.775
rradius 50.772
rwrist 17.5275
rhand 11.4518 17.0516
rfingers 7.12502
rthumb 36.502 -9.14001
lclavicle -1.14239e-014 1.78906e-015
lhumerus 1.52 -82.36 71.128
lradius 86.6013
lwrist 16.9809
lhand 27.7686 21.9375
lfingers 7.12502
lthumb 51.6901 42.2255
rfemur -5.86553 9.27773 18.9298
rtibia 18.0848
rfoot -12.1983 -16.0492
rtoes -11.5851
lfemur -10.7155 -13.2743 -18.0472
ltibia 22.3717
lfoot -14.0577 3.44704
ltoes -17.4936
2227
root 0.306531 17.3445 -1.09754 2.0404 4.56727 -0.281647
lowerback 1.92572 0.641796 0.0727449
upperback -0.82283 0.875582 0.94813
thorax -1.93627 0.442576 0.899622
lowerneck -7.58411 -11.5254 -17.1185
upperneck -8.34504 -13.7365 21.6217
head 1.69479 -6.52814 8.66612
rclavicle -5.7896e-015 7.15625e-015
rhumerus -37.058 39.7121 -105.188
rradius 50.4738
rwrist 15.1736
rhand 14.9603 16.5213
rfingers 7.12502
rthumb 39.8143 -8.76053
lclavicle -5.7896e-015 7.15625e-015
lhumerus 17.5668 -82.7239 55.1994
lradius 87.3917
lwrist 17.3489
lhand 27.1123 21.9391
lfingers 7.12502
lthumb 51.0931 42.5685
rfemur -5.91341 9.30756 18.7308
rtibia 18.1593
rfoot -12.3239 -16.2425
rtoes -10.4857
lfemur -10.7205 -13.4558 -18.2383
ltibia 22.1411
lfoot -13.8912 3.4335
ltoes -18.0026
